<svg width="20" height="42" viewBox="0 0 20 42" fill="none" xmlns="http://www.w3.org/2000/svg">
<path d="M19.5901 -2.86102e-06H21.5901V-2H19.5901V-2.86102e-06ZM12.5701 -2.86102e-06V-2H10.9242L10.6075 -0.384832L12.5701 -2.86102e-06ZM0.330078 8.4V6.4H-1.66992V8.4H0.330078ZM0.330078 14.7H-1.66992V16.7H0.330078V14.7ZM10.5301 14.7H12.5301V12.7H10.5301V14.7ZM10.5301 42H8.53008V44H10.5301V42ZM19.5901 42V44H21.5901V42H19.5901ZM19.5901 -2H12.5701V2H19.5901V-2ZM10.6075 -0.384832C10.0854 2.27762 8.99545 3.87733 7.59729 4.85714C6.15075 5.87086 4.11919 6.4 1.41008 6.4V10.4C4.58097 10.4 7.52941 9.78914 9.89287 8.13286C12.3047 6.44267 13.8548 3.84237 14.5327 0.384827L10.6075 -0.384832ZM1.41008 6.4H0.330078V10.4H1.41008V6.4ZM-1.66992 8.4V14.7H2.33008V8.4H-1.66992ZM0.330078 16.7H10.5301V12.7H0.330078V16.7ZM8.53008 14.7V42H12.5301V14.7H8.53008ZM10.5301 44H19.5901V40H10.5301V44ZM21.5901 42V-2.86102e-06H17.5901V42H21.5901Z" fill="url(#paint0_linear_305_431)"/>
<defs>
<linearGradient id="paint0_linear_305_431" x1="12.5" y1="-10" x2="12.5" y2="42" gradientUnits="userSpaceOnUse">
<stop offset="1" stop-color="#008BF5"/>
</linearGradient>
</defs>
</svg>
