<svg width="32" height="43" viewBox="0 0 32 43" fill="none" xmlns="http://www.w3.org/2000/svg">
<path d="M31.6023 26.26H33.6023V24.26H31.6023V26.26ZM25.9623 26.26H23.9623V28.26H25.9623V26.26ZM25.9623 0.879999H27.9623V-1.12H25.9623V0.879999ZM18.2823 0.879999V-1.12H17.2754L16.6757 -0.311206L18.2823 0.879999ZM0.0422814 25.48L-1.56428 24.2888L-1.95772 24.8194V25.48H0.0422814ZM0.0422814 33.34H-1.95772V35.34H0.0422814V33.34ZM18.0423 33.34H20.0423V31.34H18.0423V33.34ZM18.0423 43H16.0423V45H18.0423V43ZM25.9623 43V45H27.9623V43H25.9623ZM25.9623 33.34V31.34H23.9623V33.34H25.9623ZM31.6023 33.34V35.34H33.6023V33.34H31.6023ZM18.0423 26.26V28.26H20.0423V26.26H18.0423ZM6.88228 26.26L5.25566 25.0963L2.99243 28.26H6.88228V26.26ZM18.0423 10.66H20.0423V4.42687L16.4157 9.49634L18.0423 10.66ZM31.6023 24.26H25.9623V28.26H31.6023V24.26ZM27.9623 26.26V0.879999H23.9623V26.26H27.9623ZM25.9623 -1.12H18.2823V2.88H25.9623V-1.12ZM16.6757 -0.311206L-1.56428 24.2888L1.64884 26.6712L19.8888 2.0712L16.6757 -0.311206ZM-1.95772 25.48V33.34H2.04228V25.48H-1.95772ZM0.0422814 35.34H18.0423V31.34H0.0422814V35.34ZM16.0423 33.34V43H20.0423V33.34H16.0423ZM18.0423 45H25.9623V41H18.0423V45ZM27.9623 43V33.34H23.9623V43H27.9623ZM25.9623 35.34H31.6023V31.34H25.9623V35.34ZM33.6023 33.34V26.26H29.6023V33.34H33.6023ZM18.0423 24.26H6.88228V28.26H18.0423V24.26ZM8.5089 27.4237L19.6689 11.8237L16.4157 9.49634L5.25566 25.0963L8.5089 27.4237ZM16.0423 10.66V26.26H20.0423V10.66H16.0423Z" fill="#008BF5"/>
</svg>
