<svg width="106" height="106" viewBox="0 0 106 106" fill="none" xmlns="http://www.w3.org/2000/svg">
<rect width="106" height="106" rx="16" fill="url(#paint0_linear_305_261)"/>
<path d="M49.3793 24.7067C50.6743 21.7963 54.805 21.7963 56.1 24.7067L62.405 38.8759C62.9299 40.0556 64.0351 40.8736 65.3167 41.0312L80.4838 42.8953C83.561 43.2735 84.8185 47.0555 82.5804 49.201L71.191 60.1189C70.2908 60.9818 69.8892 62.2419 70.1239 63.4665L73.1199 79.0962C73.7136 82.1935 70.3895 84.5527 67.6617 82.97L54.5856 75.3827C53.4441 74.7204 52.0352 74.7204 50.8938 75.3827L37.8176 82.97C35.0899 84.5527 31.7657 82.1935 32.3594 79.0962L35.3554 63.4665C35.5902 62.2419 35.1885 60.9818 34.2884 60.1189L22.899 49.201C20.6609 47.0555 21.9183 43.2735 24.9955 42.8953L40.1626 41.0312C41.4443 40.8736 42.5494 40.0556 43.0743 38.8759L49.3793 24.7067Z" fill="white"/>
<defs>
<linearGradient id="paint0_linear_305_261" x1="53" y1="0" x2="53" y2="106" gradientUnits="userSpaceOnUse">
<stop stop-color="#008BF5"/>
<stop offset="1" stop-color="#00E0FF"/>
</linearGradient>
</defs>
</svg>
