<svg width="106" height="106" viewBox="0 0 106 106" fill="none" xmlns="http://www.w3.org/2000/svg">
<rect width="106" height="106" rx="16" fill="url(#paint0_linear_305_255)"/>
<path fill-rule="evenodd" clip-rule="evenodd" d="M57.6567 25.4221C55.3873 21.0172 49.0893 21.0172 46.8198 25.4221L45.8538 27.2972C44.4902 29.944 41.4138 31.2183 38.5779 30.3109L36.569 29.6681C31.8495 28.1581 27.3962 32.6115 28.9062 37.3309L29.549 39.3399C30.4563 42.1758 29.1821 45.2521 26.5352 46.6158L24.6601 47.5818C20.2552 49.8512 20.2552 56.1492 24.6601 58.4186L26.5352 59.3847C29.1821 60.7483 30.4563 63.8247 29.549 66.6605L28.9062 68.6695C27.3962 73.389 31.8495 77.8423 36.569 76.3323L38.5779 75.6895C41.4138 74.7822 44.4902 76.0564 45.8538 78.7033L46.8198 80.5784C49.0893 84.9833 55.3873 84.9833 57.6567 80.5784L58.6227 78.7033C59.9864 76.0564 63.0627 74.7822 65.8986 75.6895L67.9075 76.3323C72.627 77.8423 77.0804 73.389 75.5703 68.6695L74.9275 66.6605C74.0202 63.8247 75.2945 60.7483 77.9413 59.3847L79.8164 58.4186C84.2213 56.1492 84.2213 49.8512 79.8164 47.5818L77.9413 46.6158C75.2945 45.2521 74.0202 42.1758 74.9275 39.3399L75.5703 37.3309C77.0804 32.6115 72.627 28.1581 67.9075 29.6681L65.8986 30.3109C63.0627 31.2183 59.9864 29.944 58.6227 27.2972L57.6567 25.4221ZM52.2383 62.1431C57.2877 62.1431 61.3811 58.0497 61.3811 53.0002C61.3811 47.9508 57.2877 43.8574 52.2383 43.8574C47.1888 43.8574 43.0954 47.9508 43.0954 53.0002C43.0954 58.0497 47.1888 62.1431 52.2383 62.1431Z" fill="white"/>
<defs>
<linearGradient id="paint0_linear_305_255" x1="53" y1="0" x2="53" y2="106" gradientUnits="userSpaceOnUse">
<stop stop-color="#008BF5"/>
<stop offset="1" stop-color="#00E0FF"/>
</linearGradient>
</defs>
</svg>
