<svg width="32" height="43" viewBox="0 0 32 43" fill="none" xmlns="http://www.w3.org/2000/svg">
<path d="M31.0101 35.62H33.0101V33.62H31.0101V35.62ZM11.1501 35.62L9.48598 34.5106L7.41304 37.62H11.1501V35.62ZM22.0701 26.74L23.1985 28.3913L23.2023 28.3887L22.0701 26.74ZM1.19008 17.2H-0.809922V19.2H1.19008V17.2ZM9.35008 17.2V19.2H11.2739L11.3486 17.2776L9.35008 17.2ZM13.1301 24.52L14.2486 26.178L14.2518 26.1758L13.1301 24.52ZM0.230078 43L-1.76958 42.963L-1.8073 45H0.230078V43ZM31.0101 43V45H33.0101V43H31.0101ZM31.0101 33.62H11.1501V37.62H31.0101V33.62ZM12.8142 36.7294C13.8196 35.2213 15.4256 33.7815 17.3483 32.3612C19.3001 30.9196 21.2857 29.6983 23.1985 28.3913L20.9417 25.0887C19.2544 26.2417 16.9801 27.6604 14.9718 29.1438C12.9346 30.6485 10.8806 32.4187 9.48598 34.5106L12.8142 36.7294ZM23.2023 28.3887C25.6823 26.6855 28.1066 24.9232 29.8748 22.6169C31.7073 20.2266 32.7701 17.3493 32.7701 13.54H28.7701C28.7701 16.5107 27.9729 18.5234 26.7004 20.1831C25.3635 21.9268 23.4379 23.3745 20.9379 25.0913L23.2023 28.3887ZM32.7701 13.54C32.7701 9.19119 31.0949 5.43042 28.1393 2.77481C25.2009 0.134626 21.1284 -1.3 16.4901 -1.3V2.7C20.3118 2.7 23.3793 3.87537 25.4659 5.75019C27.5353 7.60958 28.7701 10.2688 28.7701 13.54H32.7701ZM16.4901 -1.3C11.3687 -1.3 6.99541 0.367702 3.90209 3.5222C0.812868 6.6725 -0.809922 11.1115 -0.809922 16.3H3.19008C3.19008 11.9485 4.53729 8.58749 6.75807 6.3228C8.97474 4.06229 12.2515 2.7 16.4901 2.7V-1.3ZM-0.809922 16.3V17.2H3.19008V16.3H-0.809922ZM1.19008 19.2H9.35008V15.2H1.19008V19.2ZM11.3486 17.2776C11.4625 14.3435 12.03 12.5477 12.7979 11.5187C13.4711 10.6167 14.4656 10.08 16.1901 10.08V6.08C13.4745 6.08 11.1691 7.01332 9.59221 9.12633C8.11014 11.1123 7.47764 13.8765 7.35159 17.1224L11.3486 17.2776ZM16.1901 10.08C17.5352 10.08 18.4979 10.5193 19.1208 11.1467C19.7447 11.775 20.1901 12.7558 20.1901 14.14H24.1901C24.1901 11.8642 23.4355 9.81502 21.9593 8.32833C20.4822 6.84069 18.445 6.08 16.1901 6.08V10.08ZM20.1901 14.14C20.1901 15.9319 19.2945 17.4006 17.7103 18.8396C16.0505 20.3472 14.0415 21.4869 12.0084 22.8642L14.2518 26.1758C15.9386 25.0331 18.4596 23.5628 20.3998 21.8004C22.4157 19.9694 24.1901 17.5081 24.1901 14.14H20.1901ZM12.0116 22.862C8.2834 25.377 4.84023 27.7262 2.36279 30.7633C-0.202861 33.9086 -1.67205 37.6963 -1.76958 42.963L2.22974 43.037C2.3122 38.5837 3.51302 35.6814 5.46236 33.2917C7.49993 30.7938 10.4168 28.763 14.2486 26.178L12.0116 22.862ZM0.230078 45H31.0101V41H0.230078V45ZM33.0101 43V35.62H29.0101V43H33.0101Z" fill="#008BF5"/>
</svg>
