<svg width="32" height="44" viewBox="0 0 32 44" fill="none" xmlns="http://www.w3.org/2000/svg">
<path d="M1.25008 14.74L-0.748717 14.6706L-0.820571 16.74H1.25008V14.74ZM9.35008 14.74V16.74H11.2995L11.3494 14.7913L9.35008 14.74ZM12.7701 18.04L12.9511 16.0482L10.7701 15.8499V18.04H12.7701ZM12.7701 24.04H10.7701V26.188L12.9126 26.0349L12.7701 24.04ZM8.39008 28.54L10.3899 28.5167L10.367 26.54H8.39008V28.54ZM0.170078 28.54V26.54H-1.82992V28.54H0.170078ZM23.8701 20.5L23.3548 18.5675L23.3967 22.4432L23.8701 20.5ZM1.25008 16.74H9.35008V12.74H1.25008V16.74ZM11.3494 14.7913C11.402 12.7389 11.9225 11.4589 12.5849 10.7137C13.2091 10.0115 14.1756 9.54 15.7101 9.54V5.54C13.2846 5.54 11.131 6.32853 9.59526 8.05627C8.09764 9.74109 7.41811 12.0611 7.35074 14.6887L11.3494 14.7913ZM15.7101 9.54C17.0521 9.54 17.9978 9.94111 18.5835 10.4708C19.1506 10.9836 19.5301 11.7481 19.5301 12.82H23.5301C23.5301 10.7119 22.7396 8.83635 21.2666 7.50417C19.8123 6.18888 17.848 5.54 15.7101 5.54V9.54ZM19.5301 12.82C19.5301 14.0859 19.1358 14.7388 18.5441 15.1661C17.8271 15.684 16.4974 16.1 14.2101 16.1V20.1C16.8428 20.1 19.1731 19.646 20.8861 18.4089C22.7244 17.0812 23.5301 15.0941 23.5301 12.82H19.5301ZM14.2101 16.1C13.7021 16.1 13.5281 16.1007 12.9511 16.0482L12.589 20.0318C13.3321 20.0993 13.6381 20.1 14.2101 20.1V16.1ZM10.7701 18.04V24.04H14.7701V18.04H10.7701ZM12.9126 26.0349C13.6799 25.9801 13.9828 25.98 14.8701 25.98V21.98C13.9574 21.98 13.5403 21.9799 12.6276 22.0451L12.9126 26.0349ZM14.8701 25.98C16.6735 25.98 18.1128 26.3385 19.046 26.9872C19.8626 27.5549 20.4901 28.474 20.4901 30.22H24.4901C24.4901 27.286 23.3176 25.0851 21.3292 23.7028C19.4573 22.4015 17.0866 21.98 14.8701 21.98V25.98ZM20.4901 30.22C20.4901 31.5994 19.9997 32.6385 19.2312 33.3455C18.4486 34.0652 17.2217 34.58 15.5301 34.58V38.58C18.0384 38.58 20.2916 37.8048 21.939 36.2895C23.6004 34.7615 24.4901 32.6206 24.4901 30.22H20.4901ZM15.5301 34.58C13.6897 34.58 12.5182 34.015 11.7706 33.1699C10.9862 32.2832 10.4165 30.8032 10.3899 28.5167L6.39021 28.5633C6.42363 31.4368 7.14396 33.9768 8.77459 35.8201C10.4419 37.7049 12.8105 38.58 15.5301 38.58V34.58ZM8.39008 26.54H0.170078V30.54H8.39008V26.54ZM-1.82992 28.54V29.14H2.17008V28.54H-1.82992ZM-1.82992 29.14C-1.82992 34.1005 -0.16401 38.3201 2.9916 41.2912C6.13365 44.2494 10.5497 45.78 15.7101 45.78V41.78C11.3305 41.78 7.97651 40.4906 5.73356 38.3788C3.50417 36.2799 2.17008 33.1795 2.17008 29.14H-1.82992ZM15.7101 45.78C20.705 45.78 25.0966 44.2429 28.2693 41.4679C31.4605 38.6767 33.3101 34.7209 33.3101 30.16H29.3101C29.3101 33.5791 27.9497 36.4333 25.6359 38.4571C23.3035 40.4971 19.8952 41.78 15.7101 41.78V45.78ZM33.3101 30.16C33.3101 27.3197 32.5091 24.7455 30.9303 22.6931C29.349 20.6374 27.0774 19.2228 24.3434 18.5568L23.3967 22.4432C25.3428 22.9172 26.7911 23.8726 27.7598 25.1319C28.731 26.3945 29.3101 28.0803 29.3101 30.16H33.3101ZM24.3854 22.4325C28.9838 21.2062 31.7501 17.0724 31.7501 12.22H27.7501C27.7501 15.5276 25.9564 17.8738 23.3548 18.5675L24.3854 22.4325ZM31.7501 12.22C31.7501 8.19779 30.0543 4.75296 27.1362 2.35087C24.2482 -0.0264606 20.2743 -1.3 15.7701 -1.3V2.7C19.5459 2.7 22.562 3.76646 24.594 5.43913C26.5959 7.08704 27.7501 9.4022 27.7501 12.22H31.7501ZM15.7701 -1.3C10.918 -1.3 6.82226 0.183983 3.89356 3.05075C0.968918 5.91354 -0.584894 9.9525 -0.748717 14.6706L3.24887 14.8094C3.38505 10.8875 4.65124 7.90645 6.6916 5.90924C8.72789 3.91601 11.7422 2.7 15.7701 2.7V-1.3Z" fill="#008BF5"/>
</svg>
