<svg width="32" height="44" viewBox="0 0 32 44" fill="none" xmlns="http://www.w3.org/2000/svg">
<path d="M30.7701 11.92V13.92H33.0761L32.75 11.6372L30.7701 11.92ZM31.5501 28.78H29.55L29.5501 28.7938L31.5501 28.78ZM9.05008 19.66L7.05614 19.5044L6.50819 26.5281L10.6649 20.84L9.05008 19.66ZM22.6701 11.92L20.7298 12.4051L21.1085 13.92H22.6701V11.92ZM32.75 11.6372C32.1801 7.64796 30.4559 4.36145 27.6807 2.08591C24.9175 -0.179715 21.2882 -1.3 17.1501 -1.3V2.7C20.572 2.7 23.2427 3.61971 25.1445 5.17908C27.0342 6.72855 28.3401 9.05204 28.7902 12.2028L32.75 11.6372ZM17.1501 -1.3C11.4316 -1.3 6.73214 1.08845 3.52528 5.43817C0.370413 9.71738 -1.22992 15.7342 -1.22992 22.9H2.77008C2.77008 16.2658 4.25974 11.1826 6.74487 7.81183C9.17802 4.51155 12.6686 2.7 17.1501 2.7V-1.3ZM-1.22992 22.9C-1.22992 29.7061 0.295732 35.3923 3.36314 39.4257C6.48413 43.5295 11.0526 45.72 16.6101 45.72V41.72C12.2075 41.72 8.85603 40.0405 6.54702 37.0043C4.18442 33.8977 2.77008 29.1739 2.77008 22.9H-1.22992ZM16.6101 45.72C26.4016 45.72 33.6178 38.5945 33.55 28.7662L29.5501 28.7938C29.6023 36.3655 24.2186 41.72 16.6101 41.72V45.72ZM33.5501 28.78C33.5501 19.6774 27.2939 12.92 18.4101 12.92V16.92C24.8862 16.92 29.5501 21.6826 29.5501 28.78H33.5501ZM18.4101 12.92C13.8733 12.92 10.0927 14.8435 7.4353 18.48L10.6649 20.84C12.5674 18.2365 15.1469 16.92 18.4101 16.92V12.92ZM11.044 19.8156C11.3645 15.7082 12.1522 12.9801 13.2143 11.3299C14.1867 9.81924 15.3938 9.18 17.0301 9.18V5.18C13.9864 5.18 11.5335 6.55076 9.85082 9.16506C8.25792 11.6399 7.3957 15.1518 7.05614 19.5044L11.044 19.8156ZM17.0301 9.18C18.1547 9.18 18.8815 9.47495 19.3891 9.90538C19.9172 10.3532 20.4082 11.1186 20.7298 12.4051L24.6104 11.4349C24.152 9.60137 23.323 7.99677 21.9761 6.85462C20.6087 5.69505 18.9054 5.18 17.0301 5.18V9.18ZM22.6701 13.92H30.7701V9.92H22.6701V13.92ZM16.4301 23.28C19.0633 23.28 21.2701 25.3885 21.2701 29.02H25.2701C25.2701 23.6515 21.7168 19.28 16.4301 19.28V23.28ZM21.2701 29.02C21.2701 32.6854 19.0336 34.82 16.4901 34.82V38.82C21.7466 38.82 25.2701 34.3546 25.2701 29.02H21.2701ZM16.4901 34.82C15.1207 34.82 14.0089 34.2774 13.212 33.3536C12.3976 32.4095 11.8301 30.9626 11.8301 29.08H7.83008C7.83008 31.7574 8.64258 34.1805 10.1832 35.9664C11.7413 37.7726 13.9594 38.82 16.4901 38.82V34.82ZM11.8301 29.08C11.8301 25.3514 14.0007 23.28 16.4301 23.28V19.28C11.1795 19.28 7.83008 23.8086 7.83008 29.08H11.8301Z" fill="#008BF5"/>
</svg>
