<svg width="33" height="43" viewBox="0 0 33 43" fill="none" xmlns="http://www.w3.org/2000/svg">
<path d="M29.8501 0.36H31.8501V-1.64H29.8501V0.36ZM6.39008 0.36V-1.64H4.71237L4.42056 0.0121374L6.39008 0.36ZM2.31008 23.46L0.340563 23.1121L-0.0741248 25.46H2.31008V23.46ZM9.93008 23.46V25.46H11.0077L11.6004 24.56L9.93008 23.46ZM9.39008 29.58L11.3805 29.3842L11.203 27.58H9.39008V29.58ZM0.990078 29.58V27.58H-1.12494L-1.0068 29.6917L0.990078 29.58ZM11.0101 16.74L9.0409 16.3902L7.92907 22.6494L12.4243 18.1542L11.0101 16.74ZM12.6301 7.62V5.62H10.954L10.6609 7.27021L12.6301 7.62ZM29.8501 7.62V9.62H31.8501V7.62H29.8501ZM29.8501 -1.64H6.39008V2.36H29.8501V-1.64ZM4.42056 0.0121374L0.340563 23.1121L4.27959 23.8079L8.35959 0.707862L4.42056 0.0121374ZM2.31008 25.46H9.93008V21.46H2.31008V25.46ZM11.6004 24.56C12.2866 23.5179 12.9361 22.9127 13.5959 22.5488C14.2503 22.188 15.0679 21.98 16.2301 21.98V17.98C14.5722 17.98 13.0499 18.282 11.6643 19.0462C10.2841 19.8073 9.19351 20.9421 8.25974 22.36L11.6004 24.56ZM16.2301 21.98C17.9839 21.98 19.2605 22.5608 20.1049 23.4498C20.959 24.3491 21.5501 25.7547 21.5501 27.72H25.5501C25.5501 24.9453 24.7012 22.4809 23.0053 20.6952C21.2996 18.8992 18.9162 17.98 16.2301 17.98V21.98ZM21.5501 27.72C21.5501 29.669 20.9373 31.1779 20.0345 32.1757C19.1446 33.1593 17.8752 33.76 16.2901 33.76V37.76C18.965 37.76 21.3256 36.7107 23.0007 34.8593C24.6629 33.0221 25.5501 30.511 25.5501 27.72H21.5501ZM16.2901 33.76C13.5272 33.76 11.6386 32.0089 11.3805 29.3842L7.39968 29.7758C7.86152 34.4711 11.4929 37.76 16.2901 37.76V33.76ZM9.39008 27.58H0.990078V31.58H9.39008V27.58ZM-1.0068 29.6917C-0.738611 34.4856 1.18319 38.301 4.3626 40.8887C7.50491 43.4462 11.6942 44.66 16.2901 44.66V40.66C12.3659 40.66 9.14524 39.6238 6.88756 37.7863C4.66697 35.979 3.19877 33.2544 2.98696 29.4683L-1.0068 29.6917ZM16.2901 44.66C26.5459 44.66 34.1301 37.5512 34.1301 27.54H30.1301C30.1301 35.1688 24.5142 40.66 16.2901 40.66V44.66ZM34.1301 27.54C34.1301 22.9642 32.6471 18.9996 29.8871 16.1688C27.1226 13.3335 23.2364 11.8 18.7501 11.8V15.8C22.3038 15.8 25.1075 16.9965 27.0231 18.9612C28.943 20.9304 30.1301 23.8358 30.1301 27.54H34.1301ZM18.7501 11.8C14.9454 11.8 12.0675 12.8541 9.59587 15.3258L12.4243 18.1542C14.0326 16.5459 15.8348 15.8 18.7501 15.8V11.8ZM12.9793 17.0898L14.5993 7.96979L10.6609 7.27021L9.0409 16.3902L12.9793 17.0898ZM12.6301 9.62H29.8501V5.62H12.6301V9.62ZM31.8501 7.62V0.36H27.8501V7.62H31.8501Z" fill="#008BF5"/>
</svg>
