<svg width="106" height="106" viewBox="0 0 106 106" fill="none" xmlns="http://www.w3.org/2000/svg">
<rect width="106" height="106" rx="16" fill="url(#paint0_linear_305_249)"/>
<path d="M67.4762 39.2858C67.4762 47.2807 60.995 53.762 53.0001 53.762C45.0051 53.762 38.5239 47.2807 38.5239 39.2858C38.5239 31.2908 45.0051 24.8096 53.0001 24.8096C60.995 24.8096 67.4762 31.2908 67.4762 39.2858Z" fill="white"/>
<path d="M75.4059 75.1245C75.9049 77.5994 73.8114 79.6667 71.2866 79.6667C67.1165 79.6667 60.4776 79.6667 53.0001 79.6667C45.5225 79.6667 38.8836 79.6667 34.7135 79.6667C32.1887 79.6667 30.0952 77.5994 30.5942 75.1245C32.7007 64.6768 41.9317 56.8096 53.0001 56.8096C64.0685 56.8096 73.2994 64.6768 75.4059 75.1245Z" fill="white"/>
<defs>
<linearGradient id="paint0_linear_305_249" x1="53" y1="0" x2="53" y2="106" gradientUnits="userSpaceOnUse">
<stop stop-color="#008BF5"/>
<stop offset="1" stop-color="#00E0FF"/>
</linearGradient>
</defs>
</svg>
