<svg width="106" height="106" viewBox="0 0 106 106" fill="none" xmlns="http://www.w3.org/2000/svg">
<rect width="106" height="106" rx="16" fill="url(#paint0_linear_305_243)"/>
<path fill-rule="evenodd" clip-rule="evenodd" d="M35.4762 30.1428C35.4762 28.4597 36.8406 27.0952 38.5238 27.0952H44.619C46.3022 27.0952 47.6666 28.4597 47.6666 30.1428H72.8095C75.3342 30.1428 77.3809 32.1895 77.3809 34.7143V71.2857C77.3809 73.8104 75.3342 75.8571 72.8095 75.8571H33.1904C30.6657 75.8571 28.619 73.8104 28.619 71.2857V34.7143C28.619 32.1895 30.6657 30.1428 33.1904 30.1428H35.4762ZM60.619 53C60.619 57.2079 57.2079 60.619 53 60.619C48.7921 60.619 45.3809 57.2079 45.3809 53C45.3809 48.7921 48.7921 45.3809 53 45.3809C57.2079 45.3809 60.619 48.7921 60.619 53ZM65.1904 53C65.1904 59.7326 59.7326 65.1905 53 65.1905C46.2674 65.1905 40.8095 59.7326 40.8095 53C40.8095 46.2674 46.2674 40.8095 53 40.8095C59.7326 40.8095 65.1904 46.2674 65.1904 53ZM69.7619 40.8095C71.445 40.8095 72.8095 39.445 72.8095 37.7619C72.8095 36.0787 71.445 34.7143 69.7619 34.7143C68.0787 34.7143 66.7143 36.0787 66.7143 37.7619C66.7143 39.445 68.0787 40.8095 69.7619 40.8095Z" fill="white"/>
<defs>
<linearGradient id="paint0_linear_305_243" x1="53" y1="0" x2="53" y2="106" gradientUnits="userSpaceOnUse">
<stop stop-color="#008BF5"/>
<stop offset="1" stop-color="#00E0FF"/>
</linearGradient>
</defs>
</svg>
